<svg xmlns="http://www.w3.org/2000/svg" viewBox="0 0 64 64" width="64" height="64">
  <defs>
    <!-- 主渐变背景 -->
    <linearGradient id="bgGradient" x1="0%" y1="0%" x2="100%" y2="100%">
      <stop offset="0%" style="stop-color:#667eea"/>
      <stop offset="50%" style="stop-color:#6366f1"/>
      <stop offset="100%" style="stop-color:#764ba2"/>
    </linearGradient>

    <!-- 文字渐变 -->
    <linearGradient id="textGradient" x1="0%" y1="0%" x2="100%" y2="100%">
      <stop offset="0%" style="stop-color:#ffffff;stop-opacity:0.98"/>
      <stop offset="100%" style="stop-color:#e2e8f0;stop-opacity:0.95"/>
    </linearGradient>

    <!-- 阴影滤镜 -->
    <filter id="shadow" x="-50%" y="-50%" width="200%" height="200%">
      <feDropShadow dx="0" dy="3" stdDeviation="4" flood-color="#000000" flood-opacity="0.25"/>
    </filter>

    <!-- 内发光效果 -->
    <filter id="glow" x="-50%" y="-50%" width="200%" height="200%">
      <feGaussianBlur stdDeviation="0.8" result="coloredBlur"/>
      <feMerge>
        <feMergeNode in="coloredBlur"/>
        <feMergeNode in="SourceGraphic"/>
      </feMerge>
    </filter>
  </defs>

  <!-- 背景圆角矩形 -->
  <rect x="2" y="2" width="60" height="60" rx="14" ry="14"
        fill="url(#bgGradient)"
        filter="url(#shadow)"/>

  <!-- 内部边框高光 -->
  <rect x="3" y="3" width="58" height="58" rx="13" ry="13"
        fill="none"
        stroke="rgba(255,255,255,0.25)"
        stroke-width="0.8"/>

  <!-- Markdown符号 "M" -->
  <g filter="url(#glow)">
    <path d="M 15 18 L 15 46 L 19.5 46 L 19.5 27 L 26.5 40 L 29.5 40 L 36.5 27 L 36.5 46 L 41 46 L 41 18 L 35.5 18 L 28 33 L 20.5 18 Z"
          fill="url(#textGradient)"
          stroke="rgba(255,255,255,0.4)"
          stroke-width="0.3"/>
  </g>

  <!-- 装饰性元素组 -->
  <g opacity="0.75">
    <!-- 代码符号 -->
    <g transform="translate(45, 20)">
      <circle cx="0" cy="0" r="1.2" fill="#ffffff" opacity="0.8"/>
      <circle cx="4" cy="0" r="1.2" fill="#ffffff" opacity="0.6"/>
      <circle cx="8" cy="0" r="1.2" fill="#ffffff" opacity="0.7"/>
    </g>

    <!-- 文本行 -->
    <g transform="translate(45, 28)">
      <rect x="0" y="0" width="10" height="1.2" rx="0.6" fill="rgba(255,255,255,0.8)"/>
      <rect x="0" y="4" width="7" height="1.2" rx="0.6" fill="rgba(255,255,255,0.6)"/>
      <rect x="0" y="8" width="8.5" height="1.2" rx="0.6" fill="rgba(255,255,255,0.7)"/>
      <rect x="0" y="12" width="6" height="1.2" rx="0.6" fill="rgba(255,255,255,0.5)"/>
    </g>
  </g>

  <!-- 顶部高光效果 -->
  <ellipse cx="32" cy="16" rx="24" ry="6"
           fill="rgba(255,255,255,0.15)"
           opacity="0.9"/>

  <!-- 微妙的角落高光 -->
  <circle cx="16" cy="16" r="3" fill="rgba(255,255,255,0.1)" opacity="0.6"/>
</svg>
